# xmcd
#
# Track frame offsets:
# 150
# 14422
# 32475
# 50581
# 64877
# 85142
# 98678
# 115013
# 128417
# 139539
# 156797
# 171189
#
# Disc length: 2522 seconds
#
# Revision: 0
# Processed by: cddbd v1.4PL0 Copyright (c) Steve Scherf et al.
# Submitted via: Audion 2.5.0 (http://www.panic.com/audion/)
#
DISCID=8f09d80c
DTITLE=Goo Goo Dolls - Gutterflower
DYEAR=1900
DGENRE=
TTITLE0=Big Machine
TTITLE1=Think About Me
TTITLE2=Here Is Gone
TTITLE3=You NeverKnow
TTITLE4=What A Scene
TTITLE5=Up Up Up
TTITLE6=It's Over
TTITLE7=Sympathy
TTITLE8=What Do You Need?
TTITLE9=Smash
TTITLE10=Tucked Away
TTITLE11=Truth Is A Whisper
EXTD=
EXTT0=
EXTT1=
EXTT2=
EXTT3=
EXTT4=
EXTT5=
EXTT6=
EXTT7=
EXTT8=
EXTT9=
EXTT10=
EXTT11=
PLAYORDER=
